<svg width="110" height="79" viewBox="0 0 110 79" fill="none" xmlns="http://www.w3.org/2000/svg">
<g filter="url(#filter0_d_32_31)">
<path d="M105.633 37.1814C103.237 43.5761 99.6052 49.4363 94.9447 54.4274C90.2842 59.4185 84.6862 63.4428 78.4704 66.2705C72.2547 69.0982 65.5428 70.6739 58.7181 70.9076C51.8933 71.1414 45.0894 70.0286 38.6947 67.6329C32.3 65.2371 26.4398 61.6053 21.4487 56.9448C16.4576 52.2843 12.4333 46.6863 9.60563 40.4705C6.77795 34.2547 5.20225 27.5429 4.96849 20.7181C4.73474 13.8934 5.8475 7.08946 8.24325 0.694771L56.938 18.9381L105.633 37.1814Z" fill="#8EB6F8"/>
</g>
<defs>
<filter id="filter0_d_32_31" x="0.937988" y="0.694824" width="108.695" height="78.2433" filterUnits="userSpaceOnUse" color-interpolation-filters="sRGB">
<feFlood flood-opacity="0" result="BackgroundImageFix"/>
<feColorMatrix in="SourceAlpha" type="matrix" values="0 0 0 0 0 0 0 0 0 0 0 0 0 0 0 0 0 0 127 0" result="hardAlpha"/>
<feOffset dy="4"/>
<feGaussianBlur stdDeviation="2"/>
<feComposite in2="hardAlpha" operator="out"/>
<feColorMatrix type="matrix" values="0 0 0 0 0 0 0 0 0 0 0 0 0 0 0 0 0 0 0.25 0"/>
<feBlend mode="normal" in2="BackgroundImageFix" result="effect1_dropShadow_32_31"/>
<feBlend mode="normal" in="SourceGraphic" in2="effect1_dropShadow_32_31" result="shape"/>
</filter>
</defs>
</svg>
